<svg xmlns="http://www.w3.org/2000/svg" viewBox="0 0 256 256">
  <defs>
    <linearGradient id="shieldGrad" x1="0%" y1="0%" x2="0%" y2="100%">
      <stop offset="0%" style="stop-color:#1e3a8a;stop-opacity:1" />
      <stop offset="100%" style="stop-color:#0c1e47;stop-opacity:1" />
    </linearGradient>
  </defs>
  <path d="M128 20 L40 60 L40 120 Q40 180 128 236 Q216 180 216 120 L216 60 Z" fill="url(#shieldGrad)" stroke="#06b6d4" stroke-width="4"/>
  <circle cx="128" cy="100" r="8" fill="#06b6d4"/>
  <circle cx="90" cy="80" r="6" fill="#06b6d4"/>
  <circle cx="166" cy="80" r="6" fill="#06b6d4"/>
  <circle cx="90" cy="140" r="6" fill="#06b6d4"/>
  <circle cx="166" cy="140" r="6" fill="#06b6d4"/>
  <circle cx="128" cy="160" r="6" fill="#06b6d4"/>
  <line x1="90" y1="80" x2="128" y2="100" stroke="#06b6d4" stroke-width="2"/>
  <line x1="166" y1="80" x2="128" y2="100" stroke="#06b6d4" stroke-width="2"/>
  <line x1="128" y1="100" x2="90" y2="140" stroke="#06b6d4" stroke-width="2"/>
  <line x1="128" y1="100" x2="166" y2="140" stroke="#06b6d4" stroke-width="2"/>
  <line x1="90" y1="140" x2="128" y2="160" stroke="#06b6d4" stroke-width="2"/>
  <line x1="166" y1="140" x2="128" y2="160" stroke="#06b6d4" stroke-width="2"/>
  <rect x="75" y="115" width="10" height="10" fill="#1e3a8a" stroke="#06b6d4" stroke-width="1.5"/>
  <rect x="145" y="115" width="10" height="10" fill="#1e3a8a" stroke="#06b6d4" stroke-width="1.5"/>
</svg>